<mxfile host="app.diagrams.net" agent="Mozilla/5.0 (Windows NT 10.0; Win64; x64) AppleWebKit/537.36 (KHTML, like Gecko) Chrome/134.0.0.0 Safari/537.36" version="26.1.1">
  <diagram name="Page-1" id="2-K37lG_qAuhPMhZeAws">
    <mxGraphModel dx="2044" dy="1304" grid="0" gridSize="10" guides="1" tooltips="1" connect="1" arrows="1" fold="1" page="0" pageScale="1" pageWidth="850" pageHeight="1100" math="0" shadow="0">
      <root>
        <mxCell id="0" />
        <mxCell id="1" parent="0" />
        <mxCell id="_XnJlNF0hF8tQ8OMko_6-35" value="" style="rounded=0;whiteSpace=wrap;html=1;fillStyle=auto;gradientColor=none;dashed=1;strokeWidth=2;" vertex="1" parent="1">
          <mxGeometry x="1503.5" y="306" width="393" height="191" as="geometry" />
        </mxCell>
        <mxCell id="_XnJlNF0hF8tQ8OMko_6-1" style="edgeStyle=none;curved=1;rounded=0;orthogonalLoop=1;jettySize=auto;html=1;exitX=0.5;exitY=1;exitDx=0;exitDy=0;entryX=0.5;entryY=0;entryDx=0;entryDy=0;fontSize=12;startSize=8;endSize=8;" edge="1" parent="1" source="_XnJlNF0hF8tQ8OMko_6-2" target="_XnJlNF0hF8tQ8OMko_6-4">
          <mxGeometry relative="1" as="geometry" />
        </mxCell>
        <mxCell id="_XnJlNF0hF8tQ8OMko_6-2" value="&lt;div style=&quot;font-family: &amp;quot;JetBrains Mono&amp;quot;, Consolas, &amp;quot;Courier New&amp;quot;, monospace, Consolas, &amp;quot;Courier New&amp;quot;, monospace; font-size: 14px; line-height: 19px; white-space: pre;&quot;&gt;&lt;span style=&quot;color: rgb(0, 0, 255);&quot;&gt;def&lt;/span&gt; __init__(&lt;span style=&quot;color: rgb(128, 128, 128);&quot;&gt;self&lt;/span&gt;, &lt;span style=&quot;color: rgb(128, 128, 128);&quot;&gt;time_step&lt;/span&gt;=&lt;span style=&quot;color: rgb(9, 134, 88);&quot;&gt;1&lt;/span&gt;):&lt;/div&gt;&lt;div style=&quot;font-family: &amp;quot;JetBrains Mono&amp;quot;, Consolas, &amp;quot;Courier New&amp;quot;, monospace, Consolas, &amp;quot;Courier New&amp;quot;, monospace; font-size: 14px; line-height: 19px; white-space: pre;&quot;&gt;加载数据&lt;/div&gt;&lt;div style=&quot;font-family: &amp;quot;JetBrains Mono&amp;quot;, Consolas, &amp;quot;Courier New&amp;quot;, monospace, Consolas, &amp;quot;Courier New&amp;quot;, monospace; font-size: 14px; line-height: 19px; white-space: pre;&quot;&gt;定义动作空间和状态空间&lt;/div&gt;&lt;div style=&quot;font-family: &amp;quot;JetBrains Mono&amp;quot;, Consolas, &amp;quot;Courier New&amp;quot;, monospace, Consolas, &amp;quot;Courier New&amp;quot;, monospace; font-size: 14px; line-height: 19px; white-space: pre;&quot;&gt;微电网参数配置&lt;/div&gt;&lt;div style=&quot;font-family: &amp;quot;JetBrains Mono&amp;quot;, Consolas, &amp;quot;Courier New&amp;quot;, monospace, Consolas, &amp;quot;Courier New&amp;quot;, monospace; font-size: 14px; line-height: 19px; white-space: pre;&quot;&gt;设置初始状态&lt;/div&gt;" style="rounded=1;whiteSpace=wrap;html=1;fillColor=#d5e8d4;strokeColor=#82b366;fontFamily=Poppins;fontSource=https%3A%2F%2Ffonts.googleapis.com%2Fcss%3Ffamily%3DPoppins;" vertex="1" parent="1">
          <mxGeometry x="78.00000000000023" y="-54" width="335.26" height="116" as="geometry" />
        </mxCell>
        <mxCell id="_XnJlNF0hF8tQ8OMko_6-10" style="edgeStyle=none;curved=1;rounded=0;orthogonalLoop=1;jettySize=auto;html=1;exitX=0.5;exitY=1;exitDx=0;exitDy=0;entryX=0.5;entryY=0;entryDx=0;entryDy=0;fontSize=12;startSize=8;endSize=8;" edge="1" parent="1" source="_XnJlNF0hF8tQ8OMko_6-4" target="_XnJlNF0hF8tQ8OMko_6-6">
          <mxGeometry relative="1" as="geometry" />
        </mxCell>
        <mxCell id="_XnJlNF0hF8tQ8OMko_6-4" value="&lt;div style=&quot;font-family: &amp;quot;JetBrains Mono&amp;quot;, Consolas, &amp;quot;Courier New&amp;quot;, monospace, Consolas, &amp;quot;Courier New&amp;quot;, monospace; font-size: 14px; line-height: 19px; white-space: pre;&quot;&gt;&lt;span style=&quot;color: rgb(0, 0, 255);&quot;&gt;def&lt;/span&gt; reset(&lt;span style=&quot;color: rgb(128, 128, 128);&quot;&gt;self&lt;/span&gt;):&lt;/div&gt;&lt;div style=&quot;font-family: &amp;quot;JetBrains Mono&amp;quot;, Consolas, &amp;quot;Courier New&amp;quot;, monospace, Consolas, &amp;quot;Courier New&amp;quot;, monospace; font-size: 14px; line-height: 19px; white-space: pre;&quot;&gt;重置环境，返回初始状态&lt;/div&gt;" style="rounded=1;whiteSpace=wrap;html=1;fillColor=#d5e8d4;strokeColor=#82b366;fontFamily=Poppins;fontSource=https%3A%2F%2Ffonts.googleapis.com%2Fcss%3Ffamily%3DPoppins;align=center;" vertex="1" parent="1">
          <mxGeometry x="122.81999999999994" y="99" width="245.63" height="67" as="geometry" />
        </mxCell>
        <mxCell id="_XnJlNF0hF8tQ8OMko_6-25" style="edgeStyle=none;curved=1;rounded=0;orthogonalLoop=1;jettySize=auto;html=1;exitX=0.5;exitY=1;exitDx=0;exitDy=0;entryX=0.5;entryY=0;entryDx=0;entryDy=0;fontSize=12;startSize=8;endSize=8;" edge="1" parent="1" source="_XnJlNF0hF8tQ8OMko_6-6" target="_XnJlNF0hF8tQ8OMko_6-7">
          <mxGeometry relative="1" as="geometry" />
        </mxCell>
        <mxCell id="_XnJlNF0hF8tQ8OMko_6-6" value="&lt;div style=&quot;font-family: &amp;quot;JetBrains Mono&amp;quot;, Consolas, &amp;quot;Courier New&amp;quot;, monospace, Consolas, &amp;quot;Courier New&amp;quot;, monospace; font-size: 14px; line-height: 19px; white-space: pre;&quot;&gt;&lt;span style=&quot;color: rgb(0, 0, 255);&quot;&gt;def&lt;/span&gt; step(&lt;span style=&quot;color: rgb(128, 128, 128);&quot;&gt;self&lt;/span&gt;, &lt;span style=&quot;color: rgb(128, 128, 128);&quot;&gt;action&lt;/span&gt;):&lt;/div&gt;&lt;div style=&quot;font-family: &amp;quot;JetBrains Mono&amp;quot;, Consolas, &amp;quot;Courier New&amp;quot;, monospace, Consolas, &amp;quot;Courier New&amp;quot;, monospace; font-size: 14px; line-height: 19px; white-space: pre;&quot;&gt;解析动作&lt;/div&gt;&lt;div style=&quot;font-family: &amp;quot;JetBrains Mono&amp;quot;, Consolas, &amp;quot;Courier New&amp;quot;, monospace, Consolas, &amp;quot;Courier New&amp;quot;, monospace; font-size: 14px; line-height: 19px; white-space: pre;&quot;&gt;获取当前状态&lt;/div&gt;&lt;div style=&quot;font-family: &amp;quot;JetBrains Mono&amp;quot;, Consolas, &amp;quot;Courier New&amp;quot;, monospace, Consolas, &amp;quot;Courier New&amp;quot;, monospace; font-size: 14px; line-height: 19px; white-space: pre;&quot;&gt;计算奖励值&lt;/div&gt;&lt;div style=&quot;font-family: &amp;quot;JetBrains Mono&amp;quot;, Consolas, &amp;quot;Courier New&amp;quot;, monospace, Consolas, &amp;quot;Courier New&amp;quot;, monospace; font-size: 14px; line-height: 19px; white-space: pre;&quot;&gt;更新状态&lt;/div&gt;" style="rounded=1;whiteSpace=wrap;html=1;fillColor=#d5e8d4;strokeColor=#82b366;fontFamily=Poppins;fontSource=https%3A%2F%2Ffonts.googleapis.com%2Fcss%3Ffamily%3DPoppins;align=center;" vertex="1" parent="1">
          <mxGeometry x="130.6300000000001" y="205" width="230" height="101" as="geometry" />
        </mxCell>
        <mxCell id="_XnJlNF0hF8tQ8OMko_6-26" style="edgeStyle=none;curved=1;rounded=0;orthogonalLoop=1;jettySize=auto;html=1;exitX=0.5;exitY=1;exitDx=0;exitDy=0;entryX=0.5;entryY=0;entryDx=0;entryDy=0;fontSize=12;startSize=8;endSize=8;" edge="1" parent="1" source="_XnJlNF0hF8tQ8OMko_6-7" target="_XnJlNF0hF8tQ8OMko_6-9">
          <mxGeometry relative="1" as="geometry" />
        </mxCell>
        <mxCell id="_XnJlNF0hF8tQ8OMko_6-7" value="&lt;div style=&quot;font-family: &amp;quot;JetBrains Mono&amp;quot;, Consolas, &amp;quot;Courier New&amp;quot;, monospace, Consolas, &amp;quot;Courier New&amp;quot;, monospace; font-size: 14px; line-height: 19px; white-space: pre;&quot;&gt;&lt;span style=&quot;color: rgb(0, 0, 255);&quot;&gt;def&lt;/span&gt; render(&lt;span style=&quot;color: rgb(128, 128, 128);&quot;&gt;self&lt;/span&gt;, &lt;span style=&quot;color: rgb(128, 128, 128);&quot;&gt;mode&lt;/span&gt;=&lt;span style=&quot;color: rgb(163, 21, 21);&quot;&gt;&#39;human&#39;&lt;/span&gt;):&lt;/div&gt;&lt;div style=&quot;font-family: &amp;quot;JetBrains Mono&amp;quot;, Consolas, &amp;quot;Courier New&amp;quot;, monospace, Consolas, &amp;quot;Courier New&amp;quot;, monospace; font-size: 14px; line-height: 19px; white-space: pre;&quot;&gt;可视化环境状态&lt;/div&gt;" style="rounded=1;whiteSpace=wrap;html=1;fillColor=#d5e8d4;strokeColor=#82b366;fontFamily=Poppins;fontSource=https%3A%2F%2Ffonts.googleapis.com%2Fcss%3Ffamily%3DPoppins;align=center;" vertex="1" parent="1">
          <mxGeometry x="102.63000000000011" y="349" width="286" height="59" as="geometry" />
        </mxCell>
        <mxCell id="_XnJlNF0hF8tQ8OMko_6-9" value="&lt;div style=&quot;font-family: &amp;quot;JetBrains Mono&amp;quot;, Consolas, &amp;quot;Courier New&amp;quot;, monospace, Consolas, &amp;quot;Courier New&amp;quot;, monospace; font-size: 14px; line-height: 19px; white-space: pre;&quot;&gt;&lt;span style=&quot;color: rgb(0, 0, 255);&quot;&gt;def&lt;/span&gt; close(&lt;span style=&quot;color: rgb(128, 128, 128);&quot;&gt;self&lt;/span&gt;):&lt;/div&gt;&lt;div style=&quot;font-family: &amp;quot;JetBrains Mono&amp;quot;, Consolas, &amp;quot;Courier New&amp;quot;, monospace, Consolas, &amp;quot;Courier New&amp;quot;, monospace; font-size: 14px; line-height: 19px; white-space: pre;&quot;&gt;关闭环境&lt;/div&gt;" style="rounded=1;whiteSpace=wrap;html=1;fillColor=#d5e8d4;strokeColor=#82b366;fontFamily=Poppins;fontSource=https%3A%2F%2Ffonts.googleapis.com%2Fcss%3Ffamily%3DPoppins;align=center;" vertex="1" parent="1">
          <mxGeometry x="162.1300000000001" y="444" width="167.01" height="52" as="geometry" />
        </mxCell>
        <mxCell id="_XnJlNF0hF8tQ8OMko_6-12" style="edgeStyle=none;curved=1;rounded=0;orthogonalLoop=1;jettySize=auto;html=1;exitX=0.5;exitY=1;exitDx=0;exitDy=0;fontSize=12;startSize=8;endSize=8;" edge="1" parent="1" source="_XnJlNF0hF8tQ8OMko_6-13" target="_XnJlNF0hF8tQ8OMko_6-15">
          <mxGeometry relative="1" as="geometry" />
        </mxCell>
        <mxCell id="_XnJlNF0hF8tQ8OMko_6-13" value="&lt;span style=&quot;font-family: &amp;quot;JetBrains Mono&amp;quot;, Consolas, &amp;quot;Courier New&amp;quot;, monospace, Consolas, &amp;quot;Courier New&amp;quot;, monospace; font-size: 14px; white-space: pre;&quot;&gt;开始&lt;/span&gt;" style="rounded=1;whiteSpace=wrap;html=1;fillColor=#f8cecc;strokeColor=#b85450;fontFamily=Poppins;fontSource=https%3A%2F%2Ffonts.googleapis.com%2Fcss%3Ffamily%3DPoppins;" vertex="1" parent="1">
          <mxGeometry x="764.5" y="6" width="120" height="60" as="geometry" />
        </mxCell>
        <mxCell id="_XnJlNF0hF8tQ8OMko_6-14" style="edgeStyle=none;curved=1;rounded=0;orthogonalLoop=1;jettySize=auto;html=1;exitX=0.5;exitY=1;exitDx=0;exitDy=0;entryX=0.5;entryY=0;entryDx=0;entryDy=0;fontSize=12;startSize=8;endSize=8;" edge="1" parent="1" source="_XnJlNF0hF8tQ8OMko_6-15" target="_XnJlNF0hF8tQ8OMko_6-17">
          <mxGeometry relative="1" as="geometry" />
        </mxCell>
        <mxCell id="_XnJlNF0hF8tQ8OMko_6-15" value="&lt;div style=&quot;font-family: &amp;quot;JetBrains Mono&amp;quot;, Consolas, &amp;quot;Courier New&amp;quot;, monospace, Consolas, &amp;quot;Courier New&amp;quot;, monospace; font-size: 14px; line-height: 19px; white-space: pre;&quot;&gt;&lt;span style=&quot;color: #0000ff;&quot;&gt;def&lt;/span&gt; get_args()&lt;/div&gt;" style="rounded=1;whiteSpace=wrap;html=1;fillColor=#dae8fc;strokeColor=#6c8ebf;fontFamily=Poppins;fontSource=https%3A%2F%2Ffonts.googleapis.com%2Fcss%3Ffamily%3DPoppins;" vertex="1" parent="1">
          <mxGeometry x="744.5" y="121" width="160" height="60" as="geometry" />
        </mxCell>
        <mxCell id="_XnJlNF0hF8tQ8OMko_6-16" value="" style="edgeStyle=none;curved=1;rounded=0;orthogonalLoop=1;jettySize=auto;html=1;fontSize=12;startSize=8;endSize=8;" edge="1" parent="1" source="_XnJlNF0hF8tQ8OMko_6-17" target="_XnJlNF0hF8tQ8OMko_6-19">
          <mxGeometry relative="1" as="geometry" />
        </mxCell>
        <mxCell id="_XnJlNF0hF8tQ8OMko_6-17" value="&lt;div style=&quot;font-family: &amp;quot;JetBrains Mono&amp;quot;, Consolas, &amp;quot;Courier New&amp;quot;, monospace, Consolas, &amp;quot;Courier New&amp;quot;, monospace; font-size: 14px; line-height: 19px; white-space: pre;&quot;&gt;&lt;span style=&quot;color: rgb(0, 0, 255);&quot;&gt;class&lt;/span&gt; &lt;span style=&quot;color: rgb(43, 145, 175);&quot;&gt;PolicyNetContinuous&lt;/span&gt;(torch.nn.&lt;span&gt;&lt;font style=&quot;color: rgb(0, 0, 0);&quot;&gt;Module&lt;/font&gt;&lt;/span&gt;)&lt;/div&gt;&lt;div&gt;&lt;div style=&quot;font-family: &amp;quot;JetBrains Mono&amp;quot;, Consolas, &amp;quot;Courier New&amp;quot;, monospace, Consolas, &amp;quot;Courier New&amp;quot;, monospace; font-size: 14px; line-height: 19px; white-space: pre;&quot;&gt;&lt;span style=&quot;color: rgb(0, 0, 255);&quot;&gt;class&lt;/span&gt; &lt;span style=&quot;color: rgb(43, 145, 175);&quot;&gt;QValueNetContinuous&lt;/span&gt;(torch.nn.&lt;span&gt;&lt;font style=&quot;color: rgb(0, 0, 0);&quot;&gt;Module&lt;/font&gt;&lt;/span&gt;)&lt;/div&gt;&lt;div style=&quot;font-family: &amp;quot;JetBrains Mono&amp;quot;, Consolas, &amp;quot;Courier New&amp;quot;, monospace, Consolas, &amp;quot;Courier New&amp;quot;, monospace; font-size: 14px; line-height: 19px; white-space: pre;&quot;&gt;&lt;div style=&quot;line-height: 19px;&quot;&gt;&lt;span style=&quot;color: rgb(0, 0, 255);&quot;&gt;class&lt;/span&gt; &lt;span style=&quot;color: rgb(43, 145, 175);&quot;&gt;SACContinuous&lt;/span&gt;&lt;/div&gt;&lt;/div&gt;&lt;/div&gt;" style="rounded=1;whiteSpace=wrap;html=1;fillColor=#dae8fc;strokeColor=#6c8ebf;fontFamily=Poppins;fontSource=https%3A%2F%2Ffonts.googleapis.com%2Fcss%3Ffamily%3DPoppins;align=center;" vertex="1" parent="1">
          <mxGeometry x="599.75" y="249" width="449.5" height="90" as="geometry" />
        </mxCell>
        <mxCell id="_XnJlNF0hF8tQ8OMko_6-18" value="" style="edgeStyle=none;curved=1;rounded=0;orthogonalLoop=1;jettySize=auto;html=1;fontSize=12;startSize=8;endSize=8;" edge="1" parent="1" source="_XnJlNF0hF8tQ8OMko_6-19" target="_XnJlNF0hF8tQ8OMko_6-20">
          <mxGeometry relative="1" as="geometry" />
        </mxCell>
        <mxCell id="_XnJlNF0hF8tQ8OMko_6-19" value="&lt;div style=&quot;font-family: &amp;quot;JetBrains Mono&amp;quot;, Consolas, &amp;quot;Courier New&amp;quot;, monospace, Consolas, &amp;quot;Courier New&amp;quot;, monospace; font-size: 14px; line-height: 19px; white-space: pre;&quot;&gt;&lt;span style=&quot;color: rgb(0, 0, 255);&quot;&gt;def&lt;/span&gt; main()&lt;/div&gt;&lt;div style=&quot;font-family: &amp;quot;JetBrains Mono&amp;quot;, Consolas, &amp;quot;Courier New&amp;quot;, monospace, Consolas, &amp;quot;Courier New&amp;quot;, monospace; font-size: 14px; line-height: 19px; white-space: pre;&quot;&gt;&lt;div style=&quot;line-height: 19px;&quot;&gt;replay_buffer = utils.&lt;span style=&quot;color: rgb(43, 145, 175);&quot;&gt;ReplayBuffer&lt;/span&gt;(args[&lt;span style=&quot;color: rgb(163, 21, 21);&quot;&gt;&#39;buffer_size&#39;&lt;/span&gt;])&lt;/div&gt;&lt;div style=&quot;line-height: 19px;&quot;&gt;&lt;div style=&quot;line-height: 19px;&quot;&gt;agent = &lt;span style=&quot;color: rgb(43, 145, 175);&quot;&gt;SACContinuous&lt;/span&gt;(...)&lt;/div&gt;&lt;div style=&quot;line-height: 19px;&quot;&gt;&lt;div style=&quot;line-height: 19px;&quot;&gt;return_list = utils.train_off_policy_agent(...)&lt;/div&gt;&lt;div style=&quot;line-height: 19px;&quot;&gt;&lt;div style=&quot;line-height: 19px;&quot;&gt;utils.picture_return(return_list, &lt;span style=&quot;color: rgb(163, 21, 21);&quot;&gt;&#39;SAC&#39;&lt;/span&gt;, env_name)&lt;/div&gt;&lt;/div&gt;&lt;/div&gt;&lt;/div&gt;&lt;/div&gt;" style="whiteSpace=wrap;html=1;fontFamily=Poppins;align=center;fillColor=#fff2cc;strokeColor=#d6b656;rounded=1;fontSource=https%3A%2F%2Ffonts.googleapis.com%2Fcss%3Ffamily%3DPoppins;" vertex="1" parent="1">
          <mxGeometry x="570" y="433" width="509" height="123" as="geometry" />
        </mxCell>
        <mxCell id="_XnJlNF0hF8tQ8OMko_6-20" value="&lt;span style=&quot;font-family: &amp;quot;JetBrains Mono&amp;quot;, Consolas, &amp;quot;Courier New&amp;quot;, monospace, Consolas, &amp;quot;Courier New&amp;quot;, monospace; font-size: 14px; white-space: pre;&quot;&gt;结束&lt;/span&gt;" style="rounded=1;whiteSpace=wrap;html=1;fontFamily=Poppins;fillColor=#f8cecc;strokeColor=#b85450;fontSource=https%3A%2F%2Ffonts.googleapis.com%2Fcss%3Ffamily%3DPoppins;" vertex="1" parent="1">
          <mxGeometry x="764.5" y="635" width="120" height="60" as="geometry" />
        </mxCell>
        <mxCell id="_XnJlNF0hF8tQ8OMko_6-30" value="" style="edgeStyle=none;curved=1;rounded=0;orthogonalLoop=1;jettySize=auto;html=1;fontSize=12;startSize=8;endSize=8;" edge="1" parent="1" source="_XnJlNF0hF8tQ8OMko_6-21" target="_XnJlNF0hF8tQ8OMko_6-28">
          <mxGeometry relative="1" as="geometry" />
        </mxCell>
        <mxCell id="_XnJlNF0hF8tQ8OMko_6-21" value="&lt;div style=&quot;font-family: &amp;quot;JetBrains Mono&amp;quot;, Consolas, &amp;quot;Courier New&amp;quot;, monospace, Consolas, &amp;quot;Courier New&amp;quot;, monospace; font-size: 14px; line-height: 19px; white-space: pre;&quot;&gt;&lt;div style=&quot;color: rgb(0, 0, 0); line-height: 19px;&quot;&gt;&lt;span style=&quot;color: rgb(0, 0, 255);&quot;&gt;&lt;span style=&quot;color: rgb(0, 0, 255);&quot;&gt;class&lt;/span&gt;&lt;span style=&quot;color: rgb(0, 0, 0);&quot;&gt; &lt;/span&gt;&lt;span style=&quot;color: rgb(43, 145, 175);&quot;&gt;ReplayBuffer&lt;/span&gt;&lt;span style=&quot;color: rgb(0, 0, 0);&quot;&gt;:&lt;/span&gt;&lt;/span&gt;&lt;/div&gt;&lt;div style=&quot;color: rgb(0, 0, 0); line-height: 19px;&quot;&gt;&lt;div style=&quot;line-height: 19px;&quot;&gt;&lt;span style=&quot;color: #0000ff;&quot;&gt;def&lt;/span&gt; __init__(&lt;span style=&quot;color: #808080;&quot;&gt;self&lt;/span&gt;, &lt;span style=&quot;color: #808080;&quot;&gt;capacity&lt;/span&gt;):&lt;/div&gt;&lt;div style=&quot;line-height: 19px;&quot;&gt;&lt;div style=&quot;line-height: 19px;&quot;&gt;&lt;span style=&quot;color: #0000ff;&quot;&gt;def&lt;/span&gt; add(&lt;span style=&quot;color: #808080;&quot;&gt;self&lt;/span&gt;, &lt;span style=&quot;color: #808080;&quot;&gt;state&lt;/span&gt;, &lt;span style=&quot;color: #808080;&quot;&gt;action&lt;/span&gt;, &lt;span style=&quot;color: #808080;&quot;&gt;reward&lt;/span&gt;, &lt;span style=&quot;color: #808080;&quot;&gt;next_state&lt;/span&gt;, &lt;span style=&quot;color: #808080;&quot;&gt;done&lt;/span&gt;, &lt;span style=&quot;color: #808080;&quot;&gt;truncated&lt;/span&gt;):&lt;/div&gt;&lt;div style=&quot;line-height: 19px;&quot;&gt;&lt;div style=&quot;line-height: 19px;&quot;&gt;&lt;span style=&quot;color: #0000ff;&quot;&gt;def&lt;/span&gt; sample(&lt;span style=&quot;color: #808080;&quot;&gt;self&lt;/span&gt;, &lt;span style=&quot;color: #808080;&quot;&gt;batch_size&lt;/span&gt;):&lt;/div&gt;&lt;div style=&quot;line-height: 19px;&quot;&gt;&lt;div style=&quot;line-height: 19px;&quot;&gt;&lt;span style=&quot;color: #0000ff;&quot;&gt;def&lt;/span&gt; size(&lt;span style=&quot;color: #808080;&quot;&gt;self&lt;/span&gt;):&lt;/div&gt;&lt;/div&gt;&lt;/div&gt;&lt;/div&gt;&lt;/div&gt;&lt;/div&gt;" style="whiteSpace=wrap;html=1;fontFamily=Poppins;align=center;fillColor=#f5f5f5;strokeColor=#666666;rounded=1;fontSource=https%3A%2F%2Ffonts.googleapis.com%2Fcss%3Ffamily%3DPoppins;fontColor=#333333;" vertex="1" parent="1">
          <mxGeometry x="-37" y="629" width="579" height="116" as="geometry" />
        </mxCell>
        <mxCell id="_XnJlNF0hF8tQ8OMko_6-22" value="&lt;div style=&quot;font-family: &amp;quot;JetBrains Mono&amp;quot;, Consolas, &amp;quot;Courier New&amp;quot;, monospace, Consolas, &amp;quot;Courier New&amp;quot;, monospace; font-size: 14px; line-height: 19px; white-space: pre;&quot;&gt;&lt;div style=&quot;line-height: 19px;&quot;&gt;&lt;span style=&quot;color: rgb(0, 0, 255);&quot;&gt;def&lt;/span&gt; __init__()&lt;/div&gt;&lt;div style=&quot;line-height: 19px;&quot;&gt;初始化网络&lt;/div&gt;&lt;div style=&quot;line-height: 19px;&quot;&gt;&lt;div style=&quot;line-height: 19px;&quot;&gt;&lt;span style=&quot;color: #0000ff;&quot;&gt;def&lt;/span&gt; take_action(&lt;span style=&quot;color: #808080;&quot;&gt;self&lt;/span&gt;, &lt;span style=&quot;color: #808080;&quot;&gt;state&lt;/span&gt;)&lt;/div&gt;&lt;div style=&quot;line-height: 19px;&quot;&gt;&lt;div style=&quot;line-height: 19px;&quot;&gt;&lt;span style=&quot;color: #0000ff;&quot;&gt;def&lt;/span&gt; calc_target(&lt;span style=&quot;color: #808080;&quot;&gt;self&lt;/span&gt;, &lt;span style=&quot;color: #808080;&quot;&gt;rewards&lt;/span&gt;, &lt;span style=&quot;color: #808080;&quot;&gt;next_states&lt;/span&gt;, &lt;span style=&quot;color: #808080;&quot;&gt;dones&lt;/span&gt;, &lt;span style=&quot;color: #808080;&quot;&gt;truncated&lt;/span&gt;):&lt;/div&gt;&lt;div style=&quot;line-height: 19px;&quot;&gt;计算td_target目标Q值&lt;/div&gt;&lt;div style=&quot;line-height: 19px;&quot;&gt;&lt;div style=&quot;line-height: 19px;&quot;&gt;&lt;span style=&quot;color: #0000ff;&quot;&gt;def&lt;/span&gt; soft_update(&lt;span style=&quot;color: #808080;&quot;&gt;self&lt;/span&gt;, &lt;span style=&quot;color: #808080;&quot;&gt;net&lt;/span&gt;, &lt;span style=&quot;color: #808080;&quot;&gt;target_net&lt;/span&gt;):&lt;/div&gt;&lt;div style=&quot;line-height: 19px;&quot;&gt;更新目标网络&lt;/div&gt;&lt;/div&gt;&lt;/div&gt;&lt;/div&gt;&lt;/div&gt;" style="whiteSpace=wrap;html=1;fontFamily=Poppins;align=center;fillColor=#fff2cc;strokeColor=#d6b656;rounded=1;fontSource=https%3A%2F%2Ffonts.googleapis.com%2Fcss%3Ffamily%3DPoppins;" vertex="1" parent="1">
          <mxGeometry x="1398" y="-40" width="564" height="166" as="geometry" />
        </mxCell>
        <mxCell id="_XnJlNF0hF8tQ8OMko_6-24" value="&lt;div style=&quot;font-family: &amp;quot;JetBrains Mono&amp;quot;, Consolas, &amp;quot;Courier New&amp;quot;, monospace, Consolas, &amp;quot;Courier New&amp;quot;, monospace; font-size: 14px; line-height: 19px; white-space: pre;&quot;&gt;&lt;div style=&quot;line-height: 19px;&quot;&gt;&lt;span style=&quot;color: #0000ff;&quot;&gt;def&lt;/span&gt; update(&lt;span style=&quot;color: #808080;&quot;&gt;self&lt;/span&gt;, &lt;span style=&quot;color: #808080;&quot;&gt;transition_dict&lt;/span&gt;):&lt;/div&gt;&lt;div style=&quot;line-height: 19px;&quot;&gt;更新两个Q网络&lt;/div&gt;&lt;div style=&quot;line-height: 19px;&quot;&gt;更新策略网络&lt;/div&gt;&lt;div style=&quot;line-height: 19px;&quot;&gt;更新温度系数alpha&lt;/div&gt;&lt;div style=&quot;line-height: 19px;&quot;&gt;&lt;br&gt;&lt;/div&gt;&lt;/div&gt;" style="whiteSpace=wrap;html=1;fontFamily=Poppins;align=center;fillColor=#fff2cc;strokeColor=#d6b656;rounded=1;fontSource=https%3A%2F%2Ffonts.googleapis.com%2Fcss%3Ffamily%3DPoppins;" vertex="1" parent="1">
          <mxGeometry x="1431" y="163" width="491.5" height="118" as="geometry" />
        </mxCell>
        <mxCell id="_XnJlNF0hF8tQ8OMko_6-27" value="&lt;div style=&quot;font-family: &amp;quot;JetBrains Mono&amp;quot;, Consolas, &amp;quot;Courier New&amp;quot;, monospace, Consolas, &amp;quot;Courier New&amp;quot;, monospace; font-size: 14px; line-height: 19px; white-space: pre;&quot;&gt;&lt;div style=&quot;color: rgb(0, 0, 0); line-height: 19px;&quot;&gt;&lt;span style=&quot;background-color: transparent; color: rgb(0, 0, 255);&quot;&gt;def&lt;/span&gt;&lt;span style=&quot;color: light-dark(rgb(0, 0, 0), rgb(237, 237, 237)); background-color: transparent;&quot;&gt; train_off_policy_agent(...):&lt;/span&gt;&lt;/div&gt;&lt;div style=&quot;color: rgb(0, 0, 0); line-height: 19px;&quot;&gt;&lt;span style=&quot;color: light-dark(rgb(0, 0, 0), rgb(237, 237, 237)); background-color: transparent;&quot;&gt;返回return_list&lt;/span&gt;&lt;/div&gt;&lt;/div&gt;" style="whiteSpace=wrap;html=1;fontFamily=Poppins;align=center;fillColor=#f5f5f5;strokeColor=#666666;rounded=1;fontSource=https%3A%2F%2Ffonts.googleapis.com%2Fcss%3Ffamily%3DPoppins;fontColor=#333333;" vertex="1" parent="1">
          <mxGeometry x="93.99999999999999" y="914" width="317" height="76" as="geometry" />
        </mxCell>
        <mxCell id="_XnJlNF0hF8tQ8OMko_6-29" value="" style="edgeStyle=none;curved=1;rounded=0;orthogonalLoop=1;jettySize=auto;html=1;fontSize=12;startSize=8;endSize=8;" edge="1" parent="1" source="_XnJlNF0hF8tQ8OMko_6-28" target="_XnJlNF0hF8tQ8OMko_6-27">
          <mxGeometry relative="1" as="geometry" />
        </mxCell>
        <mxCell id="_XnJlNF0hF8tQ8OMko_6-28" value="&lt;div style=&quot;font-family: &amp;quot;JetBrains Mono&amp;quot;, Consolas, &amp;quot;Courier New&amp;quot;, monospace, Consolas, &amp;quot;Courier New&amp;quot;, monospace; font-size: 14px; line-height: 19px; white-space: pre;&quot;&gt;&lt;div style=&quot;color: rgb(0, 0, 0); line-height: 19px;&quot;&gt;&lt;span style=&quot;color: rgb(0, 0, 255);&quot;&gt;def&lt;/span&gt; picture_return(&lt;span style=&quot;color: rgb(128, 128, 128);&quot;&gt;return_list&lt;/span&gt;, &lt;span style=&quot;color: rgb(128, 128, 128);&quot;&gt;policy_name&lt;/span&gt;, &lt;span style=&quot;color: rgb(128, 128, 128);&quot;&gt;env_name&lt;/span&gt;, &lt;span style=&quot;color: rgb(128, 128, 128);&quot;&gt;move_avg&lt;/span&gt;=&lt;span style=&quot;color: rgb(9, 134, 88);&quot;&gt;10&lt;/span&gt;):&lt;/div&gt;&lt;div style=&quot;color: rgb(0, 0, 0); line-height: 19px;&quot;&gt;绘制图像并保存&lt;/div&gt;&lt;/div&gt;" style="whiteSpace=wrap;html=1;fontFamily=Poppins;align=center;fillColor=#f5f5f5;strokeColor=#666666;rounded=1;fontSource=https%3A%2F%2Ffonts.googleapis.com%2Fcss%3Ffamily%3DPoppins;fontColor=#333333;" vertex="1" parent="1">
          <mxGeometry x="-44" y="791" width="593" height="81" as="geometry" />
        </mxCell>
        <mxCell id="_XnJlNF0hF8tQ8OMko_6-34" style="edgeStyle=none;curved=1;rounded=0;orthogonalLoop=1;jettySize=auto;html=1;exitX=0.5;exitY=1;exitDx=0;exitDy=0;entryX=0.5;entryY=0;entryDx=0;entryDy=0;fontSize=12;startSize=8;endSize=8;" edge="1" parent="1" source="_XnJlNF0hF8tQ8OMko_6-31" target="_XnJlNF0hF8tQ8OMko_6-33">
          <mxGeometry relative="1" as="geometry" />
        </mxCell>
        <mxCell id="_XnJlNF0hF8tQ8OMko_6-31" value="&lt;div style=&quot;font-family: &amp;quot;JetBrains Mono&amp;quot;, Consolas, &amp;quot;Courier New&amp;quot;, monospace, Consolas, &amp;quot;Courier New&amp;quot;, monospace; font-size: 14px; line-height: 19px; white-space: pre;&quot;&gt;&lt;div style=&quot;line-height: 19px;&quot;&gt;&lt;span style=&quot;background-color: transparent; color: light-dark(rgb(0, 0, 0), rgb(255, 255, 255));&quot;&gt;调用calc_target计算TD目标，TD损失&lt;/span&gt;&lt;/div&gt;&lt;/div&gt;" style="whiteSpace=wrap;html=1;fontFamily=Poppins;align=center;fillColor=#fff2cc;strokeColor=#d6b656;rounded=1;fontSource=https%3A%2F%2Ffonts.googleapis.com%2Fcss%3Ffamily%3DPoppins;" vertex="1" parent="1">
          <mxGeometry x="1564" y="343" width="272" height="43" as="geometry" />
        </mxCell>
        <mxCell id="_XnJlNF0hF8tQ8OMko_6-33" value="&lt;div style=&quot;font-family: &amp;quot;JetBrains Mono&amp;quot;, Consolas, &amp;quot;Courier New&amp;quot;, monospace, Consolas, &amp;quot;Courier New&amp;quot;, monospace; font-size: 14px; line-height: 19px; white-space: pre;&quot;&gt;&lt;div style=&quot;line-height: 19px;&quot;&gt;&lt;span style=&quot;background-color: transparent; color: light-dark(rgb(0, 0, 0), rgb(255, 255, 255));&quot;&gt;清除梯度，反向传播，Adam，更新两个Q网络参数&lt;/span&gt;&lt;/div&gt;&lt;/div&gt;" style="whiteSpace=wrap;html=1;fontFamily=Poppins;align=center;fillColor=#fff2cc;strokeColor=#d6b656;rounded=1;fontSource=https%3A%2F%2Ffonts.googleapis.com%2Fcss%3Ffamily%3DPoppins;" vertex="1" parent="1">
          <mxGeometry x="1540.5" y="417" width="319" height="44" as="geometry" />
        </mxCell>
        <mxCell id="_XnJlNF0hF8tQ8OMko_6-37" value="" style="rounded=0;whiteSpace=wrap;html=1;fillStyle=auto;gradientColor=none;dashed=1;strokeWidth=2;" vertex="1" parent="1">
          <mxGeometry x="1503.5" y="556" width="403" height="392" as="geometry" />
        </mxCell>
        <mxCell id="_XnJlNF0hF8tQ8OMko_6-38" style="edgeStyle=none;curved=1;rounded=0;orthogonalLoop=1;jettySize=auto;html=1;exitX=0.5;exitY=1;exitDx=0;exitDy=0;entryX=0.5;entryY=0;entryDx=0;entryDy=0;fontSize=12;startSize=8;endSize=8;" edge="1" source="_XnJlNF0hF8tQ8OMko_6-39" target="_XnJlNF0hF8tQ8OMko_6-40" parent="1">
          <mxGeometry relative="1" as="geometry" />
        </mxCell>
        <mxCell id="_XnJlNF0hF8tQ8OMko_6-39" value="&lt;div style=&quot;font-family: &amp;quot;JetBrains Mono&amp;quot;, Consolas, &amp;quot;Courier New&amp;quot;, monospace, Consolas, &amp;quot;Courier New&amp;quot;, monospace; font-size: 14px; line-height: 19px; white-space: pre;&quot;&gt;&lt;div style=&quot;line-height: 19px;&quot;&gt;&lt;span style=&quot;background-color: transparent; color: light-dark(rgb(0, 0, 0), rgb(255, 255, 255));&quot;&gt;获取新的动作和对数概率并求得熵(重参数化)&lt;/span&gt;&lt;/div&gt;&lt;/div&gt;" style="whiteSpace=wrap;html=1;fontFamily=Poppins;align=center;fillColor=#fff2cc;strokeColor=#d6b656;rounded=1;fontSource=https%3A%2F%2Ffonts.googleapis.com%2Fcss%3Ffamily%3DPoppins;" vertex="1" parent="1">
          <mxGeometry x="1547.25" y="608" width="292.5" height="42" as="geometry" />
        </mxCell>
        <mxCell id="_XnJlNF0hF8tQ8OMko_6-40" value="&lt;div style=&quot;font-family: &amp;quot;JetBrains Mono&amp;quot;, Consolas, &amp;quot;Courier New&amp;quot;, monospace, Consolas, &amp;quot;Courier New&amp;quot;, monospace; font-size: 14px; line-height: 19px; white-space: pre;&quot;&gt;&lt;div style=&quot;line-height: 19px;&quot;&gt;&lt;span style=&quot;background-color: transparent; color: light-dark(rgb(0, 0, 0), rgb(255, 255, 255));&quot;&gt;用新的Q网络计算双Q值&lt;/span&gt;&lt;/div&gt;&lt;/div&gt;" style="whiteSpace=wrap;html=1;fontFamily=Poppins;align=center;fillColor=#fff2cc;strokeColor=#d6b656;rounded=1;fontSource=https%3A%2F%2Ffonts.googleapis.com%2Fcss%3Ffamily%3DPoppins;" vertex="1" parent="1">
          <mxGeometry x="1534" y="683" width="319" height="44" as="geometry" />
        </mxCell>
        <mxCell id="_XnJlNF0hF8tQ8OMko_6-41" value="&lt;div style=&quot;font-family: &amp;quot;JetBrains Mono&amp;quot;, Consolas, &amp;quot;Courier New&amp;quot;, monospace, Consolas, &amp;quot;Courier New&amp;quot;, monospace; font-size: 14px; line-height: 19px; white-space: pre;&quot;&gt;&lt;div style=&quot;line-height: 19px;&quot;&gt;&lt;span style=&quot;background-color: transparent; color: light-dark(rgb(0, 0, 0), rgb(255, 255, 255));&quot;&gt;取最小Q值加上熵后求平均&lt;/span&gt;&lt;/div&gt;&lt;/div&gt;" style="whiteSpace=wrap;html=1;fontFamily=Poppins;align=center;fillColor=#fff2cc;strokeColor=#d6b656;rounded=1;fontSource=https%3A%2F%2Ffonts.googleapis.com%2Fcss%3Ffamily%3DPoppins;" vertex="1" parent="1">
          <mxGeometry x="1534" y="764" width="319" height="44" as="geometry" />
        </mxCell>
        <mxCell id="_XnJlNF0hF8tQ8OMko_6-42" value="&lt;div style=&quot;font-family: &amp;quot;JetBrains Mono&amp;quot;, Consolas, &amp;quot;Courier New&amp;quot;, monospace, Consolas, &amp;quot;Courier New&amp;quot;, monospace; font-size: 14px; line-height: 19px; white-space: pre;&quot;&gt;&lt;div style=&quot;line-height: 19px;&quot;&gt;&lt;span style=&quot;background-color: transparent; color: light-dark(rgb(0, 0, 0), rgb(255, 255, 255));&quot;&gt;清除梯度，反向传播，Adam，更新策略网络参数&lt;/span&gt;&lt;/div&gt;&lt;/div&gt;" style="whiteSpace=wrap;html=1;fontFamily=Poppins;align=center;fillColor=#fff2cc;strokeColor=#d6b656;rounded=1;fontSource=https%3A%2F%2Ffonts.googleapis.com%2Fcss%3Ffamily%3DPoppins;" vertex="1" parent="1">
          <mxGeometry x="1534" y="843" width="319" height="44" as="geometry" />
        </mxCell>
        <mxCell id="_XnJlNF0hF8tQ8OMko_6-43" value="&lt;span style=&quot;font-family: &amp;quot;JetBrains Mono&amp;quot;, Consolas, &amp;quot;Courier New&amp;quot;, monospace, Consolas, &amp;quot;Courier New&amp;quot;, monospace; white-space-collapse: preserve;&quot;&gt;&lt;font style=&quot;&quot;&gt;Critic网络&lt;/font&gt;&lt;/span&gt;" style="text;strokeColor=none;fillColor=none;html=1;fontSize=24;fontStyle=1;verticalAlign=middle;align=center;" vertex="1" parent="1">
          <mxGeometry x="2254" y="-8" width="141" height="32" as="geometry" />
        </mxCell>
        <mxCell id="_XnJlNF0hF8tQ8OMko_6-46" value="&lt;span style=&quot;font-family: &amp;quot;JetBrains Mono&amp;quot;, Consolas, &amp;quot;Courier New&amp;quot;, monospace, Consolas, &amp;quot;Courier New&amp;quot;, monospace; white-space-collapse: preserve;&quot;&gt;&lt;font style=&quot;&quot;&gt;Actor网络&lt;/font&gt;&lt;/span&gt;" style="text;strokeColor=none;fillColor=none;html=1;fontSize=24;fontStyle=1;verticalAlign=middle;align=center;" vertex="1" parent="1">
          <mxGeometry x="2262" y="82" width="141" height="32" as="geometry" />
        </mxCell>
      </root>
    </mxGraphModel>
  </diagram>
</mxfile>
